<svg width="48" height="76" viewBox="0 0 48 76" fill="none" xmlns="http://www.w3.org/2000/svg">
<path d="M37.7143 0H10.2857C7.55777 0 4.94156 1.09102 3.01262 3.03305C1.08367 4.97509 0 7.60905 0 10.3555V65.5848C0 68.3312 1.08367 70.9652 3.01262 72.9072C4.94156 74.8493 7.55777 75.9403 10.2857 75.9403H37.7143C40.4422 75.9403 43.0584 74.8493 44.9874 72.9072C46.9163 70.9652 48 68.3312 48 65.5848V10.3555C48 7.60905 46.9163 4.97509 44.9874 3.03305C43.0584 1.09102 40.4422 0 37.7143 0ZM10.2857 6.90366H37.7143C38.6236 6.90366 39.4957 7.26734 40.1387 7.91468C40.7816 8.56203 41.1429 9.44001 41.1429 10.3555V48.3256H6.85714V10.3555C6.85714 9.44001 7.21837 8.56203 7.86135 7.91468C8.50433 7.26734 9.3764 6.90366 10.2857 6.90366ZM37.7143 69.0366H10.2857C9.3764 69.0366 8.50433 68.673 7.86135 68.0256C7.21837 67.3783 6.85714 66.5003 6.85714 65.5848V55.2293H41.1429V65.5848C41.1429 66.5003 40.7816 67.3783 40.1387 68.0256C39.4957 68.673 38.6236 69.0366 37.7143 69.0366Z" fill="currentColor"/>
<path d="M24 65.5848C25.8935 65.5848 27.4286 64.0394 27.4286 62.133C27.4286 60.2266 25.8935 58.6811 24 58.6811C22.1065 58.6811 20.5714 60.2266 20.5714 62.133C20.5714 64.0394 22.1065 65.5848 24 65.5848Z" fill="currentColor"/>
</svg>
